<?xml version="1.0" standalone="no"?>
<!DOCTYPE svg PUBLIC "-//W3C//DTD SVG 20010904//EN"
 "http://www.w3.org/TR/2001/REC-SVG-20010904/DTD/svg10.dtd">
<svg version="1.0" xmlns="http://www.w3.org/2000/svg"
 width="260.000000pt" height="280.000000pt" viewBox="0 0 260.000000 280.000000"
 preserveAspectRatio="xMidYMid meet">

<g transform="translate(0.000000,280.000000) scale(0.100000,-0.100000)"
fill="#000000" stroke="none">
<path d="M1125 2786 c-281 -65 -439 -254 -470 -561 -7 -77 8 -243 30 -329 13
-51 13 -58 -6 -102 -42 -94 -12 -245 64 -331 19 -21 42 -63 52 -93 21 -66 53
-130 91 -185 16 -23 28 -55 29 -75 1 -34 4 -37 135 -113 74 -43 162 -92 196
-109 l61 -31 99 55 c54 30 138 76 187 102 l87 47 0 45 c0 32 7 55 24 77 32 43
69 119 91 187 11 33 34 73 57 98 83 90 107 205 67 315 -22 61 -22 69 -10 114
98 343 9 687 -196 757 -26 9 -53 16 -61 16 -8 0 -34 18 -59 39 -66 59 -143 82
-288 87 -80 2 -140 -1 -180 -10z"/>
<path d="M885 893 c-49 -59 -49 -59 -6 -111 21 -26 64 -76 93 -112 30 -36 61
-65 70 -65 15 0 116 114 138 156 9 16 -6 27 -123 93 -73 42 -135 76 -137 75
-3 0 -18 -16 -35 -36z"/>
<path d="M1564 861 c-55 -31 -113 -64 -127 -74 l-27 -17 67 -85 c38 -47 73
-85 80 -85 13 0 115 116 170 191 l31 45 -39 42 c-22 23 -43 42 -47 41 -4 -1
-52 -26 -108 -58z"/>
<path d="M585 721 c-306 -123 -440 -222 -520 -384 -38 -78 -65 -183 -65 -259
l0 -48 560 0 560 0 0 54 c0 111 31 228 96 360 20 43 37 93 38 114 1 33 -2 37
-26 40 -22 3 -33 -6 -69 -55 -113 -155 -125 -154 -271 35 -97 126 -156 192
-172 192 -6 0 -65 -22 -131 -49z"/>
<path d="M1838 733 c-19 -21 -79 -93 -133 -161 -53 -68 -108 -128 -121 -134
-42 -19 -73 1 -128 82 -45 65 -56 75 -81 75 -28 0 -30 -2 -29 -37 1 -21 17
-70 37 -110 64 -130 97 -251 97 -359 l0 -59 560 0 560 0 0 48 c0 73 -27 180
-63 257 -59 122 -166 220 -332 303 -86 43 -302 132 -320 132 -6 0 -27 -17 -47
-37z"/>
</g>
</svg>
